<?xml version="1.0" encoding="utf-8"?>
<!-- Generator: Adobe Illustrator 21.0.2, SVG Export Plug-In . SVG Version: 6.00 Build 0)  -->
<svg version="1.1" xmlns="http://www.w3.org/2000/svg" xmlns:xlink="http://www.w3.org/1999/xlink" x="0px" y="0px"
	 viewBox="0 0 1024 768" style="enable-background:new 0 0 1024 768;" xml:space="preserve">
<g id="Layer_1">
	<polyline points="410.4,353.9 415.8,387.1 421.1,387.1 437.4,355.7 433.6,355.5 421.4,378.9 420.4,378.9 416.3,350.5 407.1,350.5 
		407.1,353.7 	"/>
</g>
<g id="Layer_2">
	<path d="M439.3,372.9h-6.8v1.5h1.5v10.4h-1.4v2.3h6.7c0,0,3.7-0.3,3.7-3.2v-8.7C442.9,375.2,442.3,373.3,439.3,372.9z M439.8,384.8
		h-3.5v-10.4h2.8c1.3,0.4,2.3,2.3,2.3,2.3l0,5.9C441.7,384,439.8,384.8,439.8,384.8z"/>
	<polygon points="449.6,387.1 449.6,378 451.3,378 452.7,383.3 453.4,383.3 455,378 456.5,378 456.5,387.1 458.1,387.1 458.1,372.9 
		455.8,372.9 454.1,377.4 452.3,377.4 450.6,372.9 448.2,372.9 448.2,387.1 	"/>
</g>
</svg>
